<svg xmlns="http://www.w3.org/2000/svg" xmlns:xlink="http://www.w3.org/1999/xlink" viewBox="0 0 49.08 41.65"><defs><style>.cls-1{fill:url(#linear-gradient);}.cls-2{fill:url(#linear-gradient-2);}.cls-3{fill:url(#linear-gradient-3);}.cls-4{fill:url(#linear-gradient-4);}.cls-5{fill:#8872b2;}.cls-6{fill:url(#linear-gradient-5);}.cls-7{fill:#e04a2f;}</style><linearGradient id="linear-gradient" x1="13.1" y1="13.69" x2="26.12" y2="26.71" gradientUnits="userSpaceOnUse"><stop offset="0" stop-color="#5fc8d4"/><stop offset="0.27" stop-color="#5cc7d5"/><stop offset="0.48" stop-color="#52c4d7"/><stop offset="0.66" stop-color="#42bfda"/><stop offset="0.84" stop-color="#2bb9e0"/><stop offset="1" stop-color="#0eb0e6"/></linearGradient><linearGradient id="linear-gradient-2" x1="4.56" y1="19.92" x2="15.32" y2="30.68" gradientUnits="userSpaceOnUse"><stop offset="0" stop-color="#5fc8d4"/><stop offset="0.42" stop-color="#36bcdd"/><stop offset="0.79" stop-color="#19b3e4"/><stop offset="1" stop-color="#0eb0e6"/></linearGradient><linearGradient id="linear-gradient-3" x1="25.21" y1="5.15" x2="45.91" y2="5.15" gradientUnits="userSpaceOnUse"><stop offset="0" stop-color="#a898c8"/><stop offset="1" stop-color="#a898c8"/></linearGradient><linearGradient id="linear-gradient-4" x1="36.3" y1="11.52" x2="44.78" y2="16.42" gradientUnits="userSpaceOnUse"><stop offset="0" stop-color="#6d509f"/><stop offset="0.37" stop-color="#7b62a9"/><stop offset="0.79" stop-color="#8872b2"/></linearGradient><linearGradient id="linear-gradient-5" x1="36.38" y1="22.8" x2="46.52" y2="28.65" xlink:href="#linear-gradient-4"/></defs><title>jvb_logo</title><g id="Layer_2" data-name="Layer 2"><g id="Layer_2-2" data-name="Layer 2"><polygon class="cls-1" points="13.53 16.5 13.53 10.51 25.21 3.62 25.21 24.82 18.89 21.4 21.14 28.95 11.56 34.33 13.53 28.06 13.53 16.5"/><path class="cls-2" d="M0,24.48a16.92,16.92,0,0,0,4.59,7.85c3.22,3,5.62,2.62,6.24,2.4s2.7-1.31,2.7-4.78V16.5Z"/><path class="cls-3" d="M25.21,3.62S28.79,1.49,30.12.68c1-.56,2.46-1,3.46-.4l12.33,7-4,.3L37,10.29Z"/><path class="cls-4" d="M45.91,7.32c1,1.19,1.06,1.61,1,4-.26,3.4-3.28,6.65-4.73,7.49S37,21.71,37,21.71V10.29L42,7.62S44.58,6.21,45.91,7.32Z"/><polygon class="cls-5" points="44.88 16.04 47.58 17.6 42.14 18.78 44.88 16.04"/><path class="cls-6" d="M48.2,18.12c1.59,1.87,1,6.7-1.33,9.78a14.77,14.77,0,0,1-4.17,3.77l-5.61,3.24L37,21.71l5.13-2.93C44.23,17.67,46.61,16.24,48.2,18.12Z"/><polygon class="cls-5" points="37.09 34.91 28.63 30.16 31.33 21.26 25.21 24.82 25.21 3.62 37.01 10.29 37.09 34.91"/><polygon class="cls-7" points="28.63 30.16 25.08 41.65 21.14 28.95 18.89 21.4 25.21 24.82 31.33 21.26 28.63 30.16"/></g></g></svg>